<svg xmlns="http://www.w3.org/2000/svg" viewBox="70 45 110 350"
     height="300"
     width="200">
    <title>ApacheTM_LogoURL</title>
    <g style="isolation:isolate">
        <g id="Layer_1" data-name="Layer 1">
            <path d="M192,50.21c-5.35,3.16-14.24,12.1-24.85,25.06l9.75,18.41a239.93,239.93,0,0,1,20.81-26.12c0.54-.6.82-0.88,0.82-0.88l-0.82.88c-2.27,2.5-9.15,10.53-19.54,26.49,10-.5,25.37-2.54,37.91-4.69,3.73-20.89-3.66-30.46-3.66-30.46S203,43.7,192,50.21Z"/>
            <path d="M148.12,141.23q4.45-8.3,9-16.22,4.73-8.21,9.55-15.91l0.57-.91q4.77-7.56,9.63-14.51l-9.75-18.41L164.9,78c-2.81,3.5-5.73,7.27-8.73,11.27-3.38,4.51-6.85,9.31-10.37,14.36q-4.88,7-9.86,14.61-4.22,6.46-8.43,13.28l-0.31.51,12.69,25.07Q144,149,148.12,141.23Z"/>
            <path d="M90.33,282.45q-2.52,6.92-5.06,14.12l-0.07.21-0.72,2c-1.14,3.24-2.13,6.15-4.4,12.78,3.74,1.71,6.74,6.19,9.58,11.28A20.46,20.46,0,0,0,83,308.81c18.43,0.83,34.31-3.83,42.51-17.3a34.82,34.82,0,0,0,2-3.81c-3.73,4.73-8.35,6.74-17.06,6.25l-0.06,0,0.06,0c12.82-5.74,19.25-11.24,24.94-20.37,1.35-2.16,2.66-4.53,4-7.15-11.21,11.51-24.2,14.79-37.88,12.3l-10.26,1.13Z"/>
            <path d="M95.12,259.46q3.33-8.59,6.85-17.38,3.37-8.4,6.91-16.9t7.23-17q3.76-8.67,7.66-17.29T131.63,174q1.44-3,2.9-6,2.52-5.19,5.09-10.29l0.28-.55L127.2,132l-0.62,1q-4.44,7.24-8.79,14.81t-8.59,15.55q-3.54,6.66-6.92,13.44c-0.45.92-.9,1.83-1.34,2.73q-4.15,8.54-7.52,16.47-3.84,9-6.78,17.13-1.95,5.35-3.56,10.32-1.33,4.24-2.54,8.48-2.84,10-4.87,19.87L88.43,277q2.53-6.75,5.19-13.69Z"/>
            <path d="M75.51,252.75A194.94,194.94,0,0,0,72.2,276.8c0,0.28,0,.56-0.06.84-4-6.37-14.64-12.6-14.61-12.54,7.63,11.06,13.42,22,14.28,32.81-4.08.84-9.68-.37-16.14-2.75,6.74,6.19,11.8,7.91,13.77,8.37-6.19.38-12.64,4.64-19.14,9.54,9.5-3.88,17.18-5.41,22.68-4.16-8.72,24.68-17.46,51.93-26.21,80.86a7.62,7.62,0,0,0,5.18-5c1.56-5.24,11.9-39.61,28.1-84.79l1.4-3.88L81.83,295q2.57-7.1,5.32-14.51l1.26-3.37,0-.07L75.69,251.86C75.63,252.16,75.56,252.45,75.51,252.75Z"/>
            <path d="M141.86,159.2l-1.1,2.25q-1.65,3.4-3.34,6.94-1.83,3.84-3.69,7.85l-1.89,4.08q-2.84,6.19-5.77,12.79-3.6,8.11-7.32,16.86-3.55,8.34-7.19,17.27-3.46,8.48-7,17.5-3.16,8-6.38,16.54l-0.31.82q-3.19,8.44-6.44,17.33l-0.15.41,10.26-1.13-0.61-.1c12.27-1.53,28.58-10.69,39.12-22A97.45,97.45,0,0,0,153.39,238a161,161,0,0,0,8.6-17.88c2.37-5.75,4.65-12,6.85-18.72a37.17,37.17,0,0,1-9.61,3.33q-0.94.2-1.9,0.37t-2,.31h0c11.44-4.4,18.66-12.9,23.9-23.31a40.7,40.7,0,0,1-13.77,6c-0.8.18-1.61,0.32-2.44,0.44l-0.62.09h0A46.5,46.5,0,0,0,172.71,183q0.93-.71,1.81-1.46c0.89-.77,1.73-1.57,2.54-2.42q0.77-.81,1.5-1.68a40.52,40.52,0,0,0,3.2-4.41q0.46-.73.9-1.49,0.57-1.11,1.1-2.16c1.6-3.21,2.88-6.08,3.89-8.59q0.76-1.88,1.34-3.5,0.23-.65.43-1.25c0.41-1.21.73-2.28,1-3.23a31.06,31.06,0,0,0,.75-3.35h0a12.48,12.48,0,0,1-1.33.91c-3.45,2.07-9.38,3.94-14.15,4.82l9.42-1-9.42,1-0.21,0-1.44.23,0.25-.12L142,158.84Z"/>
            <path d="M178.14,94c-2.86,4.4-6,9.4-9.37,15.05l-0.53.9q-4.36,7.35-9.25,16.17c-2.81,5.09-5.73,10.54-8.77,16.41q-4,7.67-8.19,16.27l32.23-3.53c9.39-4.32,13.59-8.22,17.66-13.88,1.08-1.55,2.17-3.19,3.25-4.87,3.31-5.17,6.56-10.86,9.46-16.52a170.22,170.22,0,0,0,7.17-15.76,81.18,81.18,0,0,0,2.84-8.53c0.59-2.24,1-4.36,1.41-6.38C203.52,91.5,188.14,93.55,178.14,94Z"/>
        </g>
    </g>
</svg>