<?xml version="1.0" encoding="UTF-8" standalone="no"?>
<svg
        xmlns="http://www.w3.org/2000/svg"
        viewBox="0 0 729.80276 724.08289"
        height="724.08289"
        width="729.8028"
        version="1.1">
    <g>
        <path
                d="m 548.72656,16.814453 -184.89648,167.660157 -183.32813,6.26758 0,181.76172 -118.111325,124.19921 a 30.959469,30.959469 0 0 0 -26.611328,-15.0957 30.959469,30.959469 0 0 0 -30.8945314,31.00196 30.959469,30.959469 0 0 0 30.9804684,30.91796 30.959469,30.959469 0 0 0 18.564454,-6.23632 l 115.576172,22.13086 a 16.357479,71.199461 10.163623 0 0 -24.0332,65.58593 16.357479,71.199461 10.163623 0 0 3.56445,72.875 16.357479,71.199461 10.163623 0 0 28.6543,-67.19726 l 0.0332,-0.19336 a 16.357479,71.199461 10.163623 0 0 -1.07813,-71.24024 L 366.96484,378.76953 360.69727,737.5957 542.45898,739.16211 713.25195,569.93359 544.02539,378.76953 724.2207,198.57422 733.62305,16.814453 545.5918,197.00781 548.72656,16.814453 Z M 517.38867,88.892578 462.54688,170.37109 448.44336,159.4043 517.38867,88.892578 Z M 688.18164,131.20117 602.00195,248.7168 584.76562,234.61719 688.18164,131.20117 Z m -410.16602,127.73828 6.70704,62.34961 -23.47657,-0.75976 16.76953,-61.58985 z"
                />
    </g>
</svg>